<svg xmlns="http://www.w3.org/2000/svg" xmlns:xlink="http://www.w3.org/1999/xlink" width="201" height="88" viewBox="0 0 201 88"><svg width="18" height="18" viewBox="0 0 18 18" id="login" y="0"><title>SVGID_5_</title><path d="M9 18c-5 0-9-4-9-9s4-9 9-9 9 4 9 9-4 9-9 9zM9 2C5.2 2 2 5.1 2 9c0 3.4 2.5 6.3 5.8 6.9.4.1.7.1 1.1.1.4 0 .8 0 1.1-.1 3.3-.6 5.8-3.4 5.8-6.9.2-3.9-2.9-7-6.8-7zm0 14c-.4 0-.8 0-1.1-.1.3 0 .7.1 1.1.1.4 0 .8 0 1.1-.1-.3 0-.7.1-1.1.1zm4.2-2.5c-.1-.4-.2-.8-.5-1.2-.3-.6-.8-1.2-1.6-1.6-1.3.8-3 .8-4.2 0-.7.4-1.3 1-1.6 1.6 0 .1-.1.1-.1.2-.2.4-.3.8-.4 1.1-.5-.4-1-.9-1.4-1.4.2-.4.4-.8.7-1.2.4-.5.9-1.1 1.6-1.5-.3-.6-.5-1.2-.5-1.9 0-2.1 1.7-3.8 3.8-3.8 2.1 0 3.8 1.7 3.8 3.8 0 .7-.2 1.3-.5 1.9.7.5 1.2 1 1.6 1.5.3.4.5.8.7 1.2-.4.4-.8.9-1.4 1.3zM9 5.3c-1.1 0-2.1.9-2.1 2.1 0 1.2.9 2.1 2.1 2.1 1.1 0 2.1-.9 2.1-2.1 0-1.2-.9-2.1-2.1-2.1z" fill="#A0A6AC" fill-rule="evenodd"/></svg>
<svg width="201" height="53" viewBox="0 0 201 53" id="logo" y="18"><title>Logo</title><g fill="none" fill-rule="evenodd"><path d="M61.752 9.656V31h5.312c1.472 0 3.424-.064 5.12-1.408 1.152-.896 2.176-2.56 2.176-4.608 0-2.048-1.088-4.64-4.064-5.376 1.888-1.28 2.112-3.136 2.112-4.192 0-2.592-1.248-3.904-1.92-4.416-1.568-1.248-3.712-1.344-4.896-1.344h-3.84zm2.368 2.24h1.856c.672 0 4.128.064 4.128 3.584 0 3.296-2.944 3.552-4.192 3.552H64.12v-7.136zm0 9.248h2.432c1.696 0 2.816.192 3.616.64.832.448 1.824 1.44 1.824 3.136 0 1.28-.576 2.336-1.408 2.944-1.024.8-2.368.896-3.744.896h-2.72v-7.616zM91.46 31h2.37v-9.184l7.07-12.16h-2.75l-5.505 9.536-5.44-9.536h-2.752l7.008 12.16V31zm21.327-21.344V31h2.368v-9.28h2.08c4.864 0 6.752-2.976 6.752-5.984 0-1.344-.384-3.232-1.952-4.576-1.44-1.248-3.232-1.504-5.376-1.504h-3.873zm2.368 2.24h1.76c1.536 0 4.704.32 4.704 3.712 0 2.464-1.697 3.872-4.513 3.872h-1.952v-7.584zM148.865 31h2.623L141.92 8.632 132.096 31h2.624l2.56-6.016h9.088L148.864 31zm-10.657-8.256l3.648-8.544 3.584 8.544h-7.232zm36.238-10.112c-.48-.928-1.216-1.792-2.08-2.368-1.056-.704-2.112-.96-3.424-.96-3.456 0-5.984 2.208-5.984 5.504 0 1.6.544 2.592 1.472 3.488.96.928 2.016 1.376 2.848 1.76l1.92.896c1.12.512 1.952.896 2.56 1.472.768.704 1.056 1.536 1.056 2.496 0 2.144-1.376 4.224-4.288 4.224-1.088 0-2.144-.256-3.072-1.184-.608-.64-1.12-1.6-1.28-2.72l-2.304.64c.288 1.28.928 2.752 1.984 3.776 1.472 1.44 3.232 1.728 4.64 1.728 3.84 0 6.752-2.624 6.752-6.56 0-1.536-.448-2.784-1.536-3.872-.896-.896-2.048-1.472-3.296-2.016l-2.048-.896c-.8-.352-1.6-.704-2.24-1.344-.576-.544-.8-1.024-.8-1.856 0-1.984 1.472-3.296 3.584-3.296 1.216 0 1.984.416 2.4.736.48.384.96 1.024 1.248 1.6l1.888-1.248zm24.78 0c-.48-.928-1.215-1.792-2.08-2.368-1.055-.704-2.11-.96-3.423-.96-3.456 0-5.984 2.208-5.984 5.504 0 1.6.543 2.592 1.47 3.488.96.928 2.017 1.376 2.85 1.76l1.92.896c1.12.512 1.95.896 2.56 1.472.767.704 1.055 1.536 1.055 2.496 0 2.144-1.376 4.224-4.288 4.224-1.088 0-2.144-.256-3.072-1.184-.608-.64-1.12-1.6-1.28-2.72l-2.304.64c.29 1.28.93 2.752 1.985 3.776 1.472 1.44 3.232 1.728 4.64 1.728 3.84 0 6.752-2.624 6.752-6.56 0-1.536-.448-2.784-1.536-3.872-.895-.896-2.047-1.472-3.295-2.016l-2.048-.896c-.8-.352-1.6-.704-2.24-1.344-.576-.544-.8-1.024-.8-1.856 0-1.984 1.472-3.296 3.584-3.296 1.217 0 1.985.416 2.4.736.48.384.96 1.024 1.25 1.6l1.887-1.248z" fill="#4E4E4E"/><path d="M60.088 38.663l2.97 7.777 2.97-7.777h-.902l-2.068 5.6-2.068-5.6h-.902zm11.195 7.47c2.123 0 3.817-1.618 3.817-3.796 0-2.19-1.705-3.795-3.817-3.795s-3.817 1.606-3.817 3.795c0 2.178 1.694 3.795 3.817 3.795zm0-6.82c1.65 0 2.98 1.34 2.98 3.024 0 1.683-1.33 3.025-2.98 3.025s-2.98-1.342-2.98-3.025c0-1.683 1.33-3.025 2.98-3.025zm6.113-.65V46h.814v-7.337h-.814zm3.506 0V46h.814v-3.19h.715c1.673 0 2.322-1.023 2.322-2.057 0-.462-.132-1.11-.67-1.573-.496-.43-1.112-.517-1.85-.517h-1.33zm.814.77h.605c.53 0 1.618.11 1.618 1.276 0 .846-.583 1.33-1.55 1.33h-.672v-2.607zm14.59 6.644h1.057l-1.078-1.11c.43-.452 1.034-1.288 1.034-2.63 0-2.19-1.717-3.795-3.818-3.795-2.112 0-3.817 1.606-3.817 3.795 0 2.178 1.705 3.795 3.817 3.795 1.166 0 1.903-.462 2.21-.67l.595.615zm-1.89-3.025h-1.057l1.77 1.826c-.572.374-1.166.484-1.628.484-1.65 0-2.98-1.342-2.98-3.025 0-1.683 1.33-3.025 2.98-3.025 1.64 0 2.98 1.342 2.98 3.025 0 1.078-.505 1.738-.78 2.035l-1.287-1.32zm6.013-4.39h-.815v4.72c0 .616.066 1.21.462 1.76.44.605 1.21.99 2.145.99s1.705-.385 2.145-.99c.396-.55.462-1.144.462-1.76v-4.72h-.815v4.5c0 .616 0 1.287-.583 1.782-.297.253-.803.418-1.21.418-.407 0-.913-.165-1.21-.418-.583-.495-.583-1.166-.583-1.782v-4.5zM112.426 46h.902l-3.29-7.69-3.377 7.69h.902l.88-2.068h3.124l.857 2.068zm-3.663-2.838l1.254-2.937 1.232 2.937h-2.486zm6.4-4.5V46H118v-.77h-2.023v-6.567h-.814zm4.737 0V46h.815v-7.337h-.814zm7.093.77v-.77h-4.378v.77h1.782V46h.814v-6.567h1.783zM130.675 46h.814v-3.157l2.43-4.18h-.946l-1.892 3.278-1.87-3.277h-.946l2.41 4.18V46zm12.37-6.314c-.166-.32-.42-.616-.716-.814-.364-.242-.727-.33-1.178-.33-1.188 0-2.057.76-2.057 1.892 0 .55.187.89.506 1.2.33.318.694.472.98.604l.66.308c.385.176.67.308.88.506.264.242.363.528.363.858 0 .737-.473 1.452-1.474 1.452-.375 0-.738-.088-1.057-.407-.21-.22-.385-.55-.44-.935l-.792.22c.1.44.32.946.683 1.298.506.495 1.11.594 1.595.594 1.32 0 2.32-.902 2.32-2.255 0-.528-.153-.957-.527-1.33-.307-.31-.703-.507-1.132-.694l-.704-.308c-.275-.12-.55-.242-.77-.462-.198-.187-.275-.352-.275-.638 0-.682.505-1.133 1.23-1.133.42 0 .683.143.826.253.165.132.33.352.43.55l.648-.43zm5.99 6.446c2.124 0 3.818-1.617 3.818-3.795 0-2.19-1.705-3.795-3.817-3.795s-3.817 1.606-3.817 3.795c0 2.178 1.693 3.795 3.816 3.795zm0-6.82c1.65 0 2.982 1.342 2.982 3.025 0 1.683-1.33 3.025-2.98 3.025s-2.982-1.342-2.982-3.025c0-1.683 1.33-3.025 2.98-3.025zm6.114-.65V46h2.837v-.77h-2.024v-6.567h-.814zm5.55 0h-.813v4.72c0 .616.066 1.21.462 1.76.44.605 1.21.99 2.144.99.935 0 1.705-.385 2.145-.99.395-.55.46-1.144.46-1.76v-4.72h-.813v4.5c0 .616 0 1.287-.583 1.782-.297.253-.803.418-1.21.418-.407 0-.913-.165-1.21-.418-.583-.495-.583-1.166-.583-1.782v-4.5zm10.68.77v-.77H167v.77h1.783V46h.814v-6.567h1.782zm1.9-.77V46h.813v-7.337h-.814zm6.926 7.47c2.123 0 3.817-1.617 3.817-3.795 0-2.19-1.705-3.795-3.817-3.795s-3.817 1.606-3.817 3.795c0 2.178 1.693 3.795 3.816 3.795zm0-6.82c1.65 0 2.98 1.342 2.98 3.025 0 1.683-1.33 3.025-2.98 3.025s-2.98-1.342-2.98-3.025c0-1.683 1.33-3.025 2.98-3.025zM187.133 46v-5.665l5.72 5.995v-7.667h-.814v5.687l-5.72-5.995V46h.813zm12.34-6.314c-.166-.32-.42-.616-.716-.814-.363-.242-.726-.33-1.177-.33-1.188 0-2.057.76-2.057 1.892 0 .55.187.89.506 1.2.33.318.692.472.978.604l.66.308c.385.176.67.308.88.506.264.242.363.528.363.858 0 .737-.472 1.452-1.473 1.452-.374 0-.737-.088-1.056-.407-.208-.22-.384-.55-.44-.935l-.79.22c.098.44.318.946.68 1.298.507.495 1.112.594 1.596.594 1.32 0 2.32-.902 2.32-2.255 0-.528-.153-.957-.527-1.33-.31-.31-.705-.507-1.134-.694l-.704-.308c-.275-.12-.55-.242-.77-.462-.198-.187-.275-.352-.275-.638 0-.682.506-1.133 1.232-1.133.417 0 .68.143.824.253.165.132.33.352.43.55l.648-.43z" fill-opacity=".493" fill="#011C41"/><path d="M26.506.824l17.49 10.052C45.905 11.976 47 13.86 47 16.06v20.103c0 2.198-1.094 4.084-3.005 5.183l-17.49 10.052c-1.91 1.1-4.1 1.1-6.01 0L3.004 41.346C1.096 40.246 0 38.36 0 36.163V16.06c0-2.2 1.094-4.085 3.006-5.184L20.494.824c1.912-1.1 4.1-1.1 6.012 0" fill="#FFA600"/><path d="M23.5 26.11c2.72 0 5.18 1.11 6.963 2.902l-2.307 2.32c-1.192-1.197-2.837-1.94-4.656-1.94-1.818 0-3.464.743-4.656 1.94l-2.307-2.32c1.782-1.792 4.244-2.9 6.963-2.9M26.058 16.537c-.842-.137-1.696-.207-2.558-.207-.862 0-1.716.07-2.558.207-.704-5.802 5.82-5.802 5.116 0" fill="#FFF"/><path d="M23.065 19.148c4.59 0 8.743 1.797 11.75 4.7l-2.342 2.263c-2.407-2.325-5.734-3.763-9.408-3.763-3.674 0-7 1.438-9.408 3.764l-2.342-2.26c3.007-2.905 7.16-4.702 11.75-4.702M23.5 32.204c1.923 0 3.48 1.558 3.48 3.48 0 1.924-1.557 3.483-3.48 3.483s-3.48-1.56-3.48-3.482c0-1.923 1.557-3.48 3.48-3.48M17.407 32.204c-.96 0-1.74-.78-1.74-1.74 0-.962.78-1.742 1.74-1.742.962 0 1.74.78 1.74 1.74 0 .963-.778 1.742-1.74 1.742M29.593 32.204c-.962 0-1.74-.78-1.74-1.74 0-.962.778-1.742 1.74-1.742.96 0 1.74.78 1.74 1.74 0 .963-.78 1.742-1.74 1.742" fill="#FFF"/><path d="M33.945 26.98c-.962 0-1.74-.778-1.74-1.74 0-.96.778-1.74 1.74-1.74.96 0 1.74.78 1.74 1.74 0 .962-.78 1.74-1.74 1.74M13.056 26.98c-.962 0-1.74-.778-1.74-1.74 0-.96.778-1.74 1.74-1.74.96 0 1.74.78 1.74 1.74 0 .962-.78 1.74-1.74 1.74M22.63 39.167h1.74l-.87 2.61-.87-2.61M19.583 13.056c.72 0 1.306-.585 1.306-1.306 0-.72-.586-1.306-1.307-1.306-.72 0-1.305.585-1.305 1.306 0 .72.584 1.306 1.305 1.306M27.417 13.056c.72 0 1.305-.585 1.305-1.306 0-.72-.585-1.306-1.305-1.306s-1.306.585-1.306 1.306c0 .72.586 1.306 1.307 1.306" fill="#FFF"/><path d="M23.5 13.534l.02.01 3.097-3.098.364-.002-2.57 5.223h-.91v-2.133M22.63 13.534l-.02.01-3.098-3.1h-.364l2.57 5.223h.912v-2.133" fill="#FFF"/></g></svg>
<svg width="17" height="17" viewBox="0 0 17 17" id="registration" y="71"><title>icon</title><path d="M15 8c-.5 0-1 .5-1 1v6H2V3h6c.5 0 1-.5 1-1s-.5-1-1-1H1c-.6 0-1 .4-1 1v14c0 .6.4 1 1 1h14c.6 0 1-.4 1-1V9c0-.5-.5-1-1-1zm1.8-5.4L14.4.2c-.1-.1-.3-.2-.5-.2s-.3.1-.5.2L4 10v3h3l9.8-9.4c.1-.1.2-.3.2-.5s-.1-.3-.2-.5zM7 11H6v-1l7.9-8L15 3.1 7 11z" fill="#FFF" fill-rule="evenodd"/></svg>
</svg>