<?xml version="1.0" encoding="UTF-8" standalone="no"?>
<svg width="18px" height="18px" viewBox="0 0 18 18" version="1.1" xmlns="http://www.w3.org/2000/svg" xmlns:xlink="http://www.w3.org/1999/xlink" xmlns:sketch="http://www.bohemiancoding.com/sketch/ns">
    <!-- Generator: Sketch 3.5.1 (25234) - http://www.bohemiancoding.com/sketch -->
    <title>SVGID_5_</title>
    <desc>Created with Sketch.</desc>
    <defs></defs>
    <g id="Page-1" stroke="none" stroke-width="1" fill="none" fill-rule="evenodd" sketch:type="MSPage">
        <g id="INDEX" sketch:type="MSArtboardGroup" transform="translate(-1279.000000, -31.000000)" fill="#A0A6AC">
            <g id="HEADER" sketch:type="MSLayerGroup" transform="translate(-2.100000, 0.000000)">
                <g id="Menu-/-not-loginned" transform="translate(2.100000, 0.000000)" sketch:type="MSShapeGroup">
                    <g id="Buttons" transform="translate(1099.000000, 20.000000)">
                        <g id="Member-login-button" transform="translate(162.000000, 0.000000)">
                            <g id="icon" transform="translate(18.000000, 11.000000)">
                                <path d="M9,18 C4,18 0,14 0,9 C0,4 4,0 9,0 C14,0 18,4 18,9 C18,14 14,18 9,18 L9,18 L9,18 Z M9,2 C5.2,2 2,5.1 2,9 C2,12.4 4.5,15.3 7.8,15.9 L7.8,15.9 C8.2,16 8.5,16 8.9,16 C9.3,16 9.7,16 10,15.9 L10,15.9 C13.3,15.3 15.8,12.5 15.8,9 C16,5.1 12.9,2 9,2 L9,2 L9,2 Z M9,16 C8.6,16 8.2,16 7.9,15.9 C8.2,15.9 8.6,16 9,16 C9.4,16 9.8,16 10.1,15.9 C9.8,15.9 9.4,16 9,16 L9,16 L9,16 Z M13.2,13.5 C13.1,13.1 13,12.7 12.7,12.3 C12.4,11.7 11.9,11.1 11.1,10.7 C9.8,11.5 8.1,11.5 6.9,10.7 C6.2,11.1 5.6,11.7 5.3,12.3 C5.3,12.4 5.2,12.4 5.2,12.5 C5,12.9 4.9,13.3 4.8,13.6 C4.3,13.2 3.8,12.7 3.4,12.2 C3.6,11.8 3.8,11.4 4.1,11 C4.5,10.5 5,9.9 5.7,9.5 C5.4,8.9 5.2,8.3 5.2,7.6 C5.2,5.5 6.9,3.8 9,3.8 C11.1,3.8 12.8,5.5 12.8,7.6 C12.8,8.3 12.6,8.9 12.3,9.5 C13,10 13.5,10.5 13.9,11 C14.2,11.4 14.4,11.8 14.6,12.2 C14.2,12.6 13.8,13.1 13.2,13.5 L13.2,13.5 L13.2,13.5 Z M9,5.3 C7.9,5.3 6.9,6.2 6.9,7.4 C6.9,8.6 7.8,9.5 9,9.5 C10.1,9.5 11.1,8.6 11.1,7.4 C11.1,6.2 10.2,5.3 9,5.3 L9,5.3 L9,5.3 Z" id="SVGID_5_"></path>
                            </g>
                        </g>
                    </g>
                </g>
            </g>
        </g>
    </g>
</svg>