<?xml version="1.0" encoding="UTF-8" standalone="no"?>
<svg width="201px" height="53px" viewBox="0 0 201 53" version="1.1" xmlns="http://www.w3.org/2000/svg" xmlns:xlink="http://www.w3.org/1999/xlink" xmlns:sketch="http://www.bohemiancoding.com/sketch/ns">
    <!-- Generator: Sketch 3.5.1 (25234) - http://www.bohemiancoding.com/sketch -->
    <title>Logo</title>
    <desc>Created with Sketch.</desc>
    <defs></defs>
    <g id="Page-1" stroke="none" stroke-width="1" fill="none" fill-rule="evenodd" sketch:type="MSPage">
        <g id="INDEX" sketch:type="MSArtboardGroup" transform="translate(-16.000000, -15.000000)">
            <g id="HEADER" sketch:type="MSLayerGroup" transform="translate(-2.100000, 0.000000)">
                <g id="Menu-/-not-loginned" transform="translate(2.100000, 0.000000)" sketch:type="MSShapeGroup">
                    <g id="Logo" transform="translate(16.000000, 15.000000)">
                        <path d="M61.752,9.656 L61.752,31 L67.064,31 C68.536,31 70.488,30.936 72.184,29.592 C73.336,28.696 74.36,27.032 74.36,24.984 C74.36,22.936 73.272,20.344 70.296,19.608 C72.184,18.328 72.408,16.472 72.408,15.416 C72.408,12.824 71.16,11.512 70.488,11 C68.92,9.752 66.776,9.656 65.592,9.656 L61.752,9.656 Z M64.12,11.896 L65.976,11.896 C66.648,11.896 70.104,11.96 70.104,15.48 C70.104,18.776 67.16,19.032 65.912,19.032 L64.12,19.032 L64.12,11.896 Z M64.12,21.144 L66.552,21.144 C68.248,21.144 69.368,21.336 70.168,21.784 C71,22.232 71.992,23.224 71.992,24.92 C71.992,26.2 71.416,27.256 70.584,27.864 C69.56,28.664 68.216,28.76 66.84,28.76 L64.12,28.76 L64.12,21.144 Z M91.4614195,31 L93.8294195,31 L93.8294195,21.816 L100.901419,9.656 L98.1494195,9.656 L92.6454195,19.192 L87.2054195,9.656 L84.4534195,9.656 L91.4614195,21.816 L91.4614195,31 Z M112.786839,9.656 L112.786839,31 L115.154839,31 L115.154839,21.72 L117.234839,21.72 C122.098839,21.72 123.986839,18.744 123.986839,15.736 C123.986839,14.392 123.602839,12.504 122.034839,11.16 C120.594839,9.912 118.802839,9.656 116.658839,9.656 L112.786839,9.656 Z M115.154839,11.896 L116.914839,11.896 C118.450839,11.896 121.618839,12.216 121.618839,15.608 C121.618839,18.072 119.922839,19.48 117.106839,19.48 L115.154839,19.48 L115.154839,11.896 Z M148.864258,31 L151.488258,31 L141.920258,8.632 L132.096258,31 L134.720258,31 L137.280258,24.984 L146.368258,24.984 L148.864258,31 Z M138.208258,22.744 L141.856258,14.2 L145.440258,22.744 L138.208258,22.744 Z M174.445678,12.632 C173.965678,11.704 173.229678,10.84 172.365678,10.264 C171.309678,9.56 170.253678,9.304 168.941678,9.304 C165.485678,9.304 162.957678,11.512 162.957678,14.808 C162.957678,16.408 163.501678,17.4 164.429678,18.296 C165.389678,19.224 166.445678,19.672 167.277678,20.056 L169.197678,20.952 C170.317678,21.464 171.149678,21.848 171.757678,22.424 C172.525678,23.128 172.813678,23.96 172.813678,24.92 C172.813678,27.064 171.437678,29.144 168.525678,29.144 C167.437678,29.144 166.381678,28.888 165.453678,27.96 C164.845678,27.32 164.333678,26.36 164.173678,25.24 L161.869678,25.88 C162.157678,27.16 162.797678,28.632 163.853678,29.656 C165.325678,31.096 167.085678,31.384 168.493678,31.384 C172.333678,31.384 175.245678,28.76 175.245678,24.824 C175.245678,23.288 174.797678,22.04 173.709678,20.952 C172.813678,20.056 171.661678,19.48 170.413678,18.936 L168.365678,18.04 C167.565678,17.688 166.765678,17.336 166.125678,16.696 C165.549678,16.152 165.325678,15.672 165.325678,14.84 C165.325678,12.856 166.797678,11.544 168.909678,11.544 C170.125678,11.544 170.893678,11.96 171.309678,12.28 C171.789678,12.664 172.269678,13.304 172.557678,13.88 L174.445678,12.632 Z M199.227097,12.632 C198.747097,11.704 198.011097,10.84 197.147097,10.264 C196.091097,9.56 195.035097,9.304 193.723097,9.304 C190.267097,9.304 187.739097,11.512 187.739097,14.808 C187.739097,16.408 188.283097,17.4 189.211097,18.296 C190.171097,19.224 191.227097,19.672 192.059097,20.056 L193.979097,20.952 C195.099097,21.464 195.931097,21.848 196.539097,22.424 C197.307097,23.128 197.595097,23.96 197.595097,24.92 C197.595097,27.064 196.219097,29.144 193.307097,29.144 C192.219097,29.144 191.163097,28.888 190.235097,27.96 C189.627097,27.32 189.115097,26.36 188.955097,25.24 L186.651097,25.88 C186.939097,27.16 187.579097,28.632 188.635097,29.656 C190.107097,31.096 191.867097,31.384 193.275097,31.384 C197.115097,31.384 200.027097,28.76 200.027097,24.824 C200.027097,23.288 199.579097,22.04 198.491097,20.952 C197.595097,20.056 196.443097,19.48 195.195097,18.936 L193.147097,18.04 C192.347097,17.688 191.547097,17.336 190.907097,16.696 C190.331097,16.152 190.107097,15.672 190.107097,14.84 C190.107097,12.856 191.579097,11.544 193.691097,11.544 C194.907097,11.544 195.675097,11.96 196.091097,12.28 C196.571097,12.664 197.051097,13.304 197.339097,13.88 L199.227097,12.632 Z" id="BiPass-Tele" fill="#4E4E4E"></path>
                        <path d="M60.088,38.663 L63.058,46.44 L66.028,38.663 L65.126,38.663 L63.058,44.262 L60.99,38.663 L60.088,38.663 Z M71.283,46.132 C73.406,46.132 75.1,44.515 75.1,42.337 C75.1,40.148 73.395,38.542 71.283,38.542 C69.171,38.542 67.466,40.148 67.466,42.337 C67.466,44.515 69.16,46.132 71.283,46.132 L71.283,46.132 Z M71.283,39.312 C72.933,39.312 74.264,40.654 74.264,42.337 C74.264,44.02 72.933,45.362 71.283,45.362 C69.633,45.362 68.302,44.02 68.302,42.337 C68.302,40.654 69.633,39.312 71.283,39.312 L71.283,39.312 Z M77.396,38.663 L77.396,46 L78.21,46 L78.21,38.663 L77.396,38.663 Z M80.902,38.663 L80.902,46 L81.716,46 L81.716,42.81 L82.431,42.81 C84.103,42.81 84.752,41.787 84.752,40.753 C84.752,40.291 84.62,39.642 84.081,39.18 C83.586,38.751 82.97,38.663 82.233,38.663 L80.902,38.663 Z M81.716,39.433 L82.321,39.433 C82.849,39.433 83.938,39.543 83.938,40.709 C83.938,41.556 83.355,42.04 82.387,42.04 L81.716,42.04 L81.716,39.433 Z M96.3070001,46.077 L97.3630001,46.077 L96.2850001,44.966 C96.7140001,44.515 97.3190001,43.679 97.3190001,42.337 C97.3190001,40.148 95.6030001,38.542 93.5020001,38.542 C91.3900001,38.542 89.6850001,40.148 89.6850001,42.337 C89.6850001,44.515 91.3900001,46.132 93.5020001,46.132 C94.6680001,46.132 95.4050001,45.67 95.7130001,45.461 L96.3070001,46.077 Z M94.4150001,43.052 L93.3590001,43.052 L95.1300001,44.878 C94.5580001,45.252 93.9640001,45.362 93.5020001,45.362 C91.8520001,45.362 90.5210001,44.02 90.5210001,42.337 C90.5210001,40.654 91.8520001,39.312 93.5020001,39.312 C95.1410001,39.312 96.4830001,40.654 96.4830001,42.337 C96.4830001,43.415 95.9770001,44.075 95.7020001,44.372 L94.4150001,43.052 Z M100.429,38.663 L99.6150001,38.663 L99.6150001,43.382 C99.6150001,43.998 99.6810001,44.592 100.077,45.142 C100.517,45.747 101.287,46.132 102.222,46.132 C103.157,46.132 103.927,45.747 104.367,45.142 C104.763,44.592 104.829,43.998 104.829,43.382 L104.829,38.663 L104.015,38.663 L104.015,43.162 C104.015,43.778 104.015,44.449 103.432,44.944 C103.135,45.197 102.629,45.362 102.222,45.362 C101.815,45.362 101.309,45.197 101.012,44.944 C100.429,44.449 100.429,43.778 100.429,43.162 L100.429,38.663 Z M112.427,46 L113.329,46 L110.04,38.311 L106.663,46 L107.565,46 L108.445,43.932 L111.569,43.932 L112.427,46 Z M108.764,43.162 L110.018,40.225 L111.25,43.162 L108.764,43.162 Z M115.163,38.663 L115.163,46 L118.001,46 L118.001,45.23 L115.977,45.23 L115.977,38.663 L115.163,38.663 Z M119.901,38.663 L119.901,46 L120.715,46 L120.715,38.663 L119.901,38.663 Z M126.993,39.433 L126.993,38.663 L122.615,38.663 L122.615,39.433 L124.397,39.433 L124.397,46 L125.211,46 L125.211,39.433 L126.993,39.433 Z M130.675,46 L131.489,46 L131.489,42.843 L133.92,38.663 L132.974,38.663 L131.082,41.941 L129.212,38.663 L128.266,38.663 L130.675,42.843 L130.675,46 Z M143.044,39.686 C142.879,39.367 142.626,39.07 142.329,38.872 C141.966,38.63 141.603,38.542 141.152,38.542 C139.964,38.542 139.095,39.301 139.095,40.434 C139.095,40.984 139.282,41.325 139.601,41.633 C139.931,41.952 140.294,42.106 140.58,42.238 L141.24,42.546 C141.625,42.722 141.911,42.854 142.12,43.052 C142.384,43.294 142.483,43.58 142.483,43.91 C142.483,44.647 142.01,45.362 141.009,45.362 C140.635,45.362 140.272,45.274 139.953,44.955 C139.744,44.735 139.568,44.405 139.513,44.02 L138.721,44.24 C138.82,44.68 139.04,45.186 139.403,45.538 C139.909,46.033 140.514,46.132 140.998,46.132 C142.318,46.132 143.319,45.23 143.319,43.877 C143.319,43.349 143.165,42.92 142.791,42.546 C142.483,42.238 142.087,42.04 141.658,41.853 L140.954,41.545 C140.679,41.424 140.404,41.303 140.184,41.083 C139.986,40.896 139.909,40.731 139.909,40.445 C139.909,39.763 140.415,39.312 141.141,39.312 C141.559,39.312 141.823,39.455 141.966,39.565 C142.131,39.697 142.296,39.917 142.395,40.115 L143.044,39.686 Z M149.036,46.132 C151.159,46.132 152.853,44.515 152.853,42.337 C152.853,40.148 151.148,38.542 149.036,38.542 C146.924,38.542 145.219,40.148 145.219,42.337 C145.219,44.515 146.913,46.132 149.036,46.132 L149.036,46.132 Z M149.036,39.312 C150.686,39.312 152.017,40.654 152.017,42.337 C152.017,44.02 150.686,45.362 149.036,45.362 C147.386,45.362 146.055,44.02 146.055,42.337 C146.055,40.654 147.386,39.312 149.036,39.312 L149.036,39.312 Z M155.149,38.663 L155.149,46 L157.987,46 L157.987,45.23 L155.963,45.23 L155.963,38.663 L155.149,38.663 Z M160.701,38.663 L159.887,38.663 L159.887,43.382 C159.887,43.998 159.953,44.592 160.349,45.142 C160.789,45.747 161.559,46.132 162.494,46.132 C163.429,46.132 164.199,45.747 164.639,45.142 C165.035,44.592 165.101,43.998 165.101,43.382 L165.101,38.663 L164.287,38.663 L164.287,43.162 C164.287,43.778 164.287,44.449 163.704,44.944 C163.407,45.197 162.901,45.362 162.494,45.362 C162.087,45.362 161.581,45.197 161.284,44.944 C160.701,44.449 160.701,43.778 160.701,43.162 L160.701,38.663 Z M171.379,39.433 L171.379,38.663 L167.001,38.663 L167.001,39.433 L168.783,39.433 L168.783,46 L169.597,46 L169.597,39.433 L171.379,39.433 Z M173.279,38.663 L173.279,46 L174.093,46 L174.093,38.663 L173.279,38.663 Z M180.206,46.132 C182.329,46.132 184.023,44.515 184.023,42.337 C184.023,40.148 182.318,38.542 180.206,38.542 C178.094,38.542 176.389,40.148 176.389,42.337 C176.389,44.515 178.083,46.132 180.206,46.132 L180.206,46.132 Z M180.206,39.312 C181.856,39.312 183.187,40.654 183.187,42.337 C183.187,44.02 181.856,45.362 180.206,45.362 C178.556,45.362 177.225,44.02 177.225,42.337 C177.225,40.654 178.556,39.312 180.206,39.312 L180.206,39.312 Z M187.133,46 L187.133,40.335 L192.853,46.33 L192.853,38.663 L192.039,38.663 L192.039,44.35 L186.319,38.355 L186.319,46 L187.133,46 Z M199.472,39.686 C199.307,39.367 199.054,39.07 198.757,38.872 C198.394,38.63 198.031,38.542 197.58,38.542 C196.392,38.542 195.523,39.301 195.523,40.434 C195.523,40.984 195.71,41.325 196.029,41.633 C196.359,41.952 196.722,42.106 197.008,42.238 L197.668,42.546 C198.053,42.722 198.339,42.854 198.548,43.052 C198.812,43.294 198.911,43.58 198.911,43.91 C198.911,44.647 198.438,45.362 197.437,45.362 C197.063,45.362 196.7,45.274 196.381,44.955 C196.172,44.735 195.996,44.405 195.941,44.02 L195.149,44.24 C195.248,44.68 195.468,45.186 195.831,45.538 C196.337,46.033 196.942,46.132 197.426,46.132 C198.746,46.132 199.747,45.23 199.747,43.877 C199.747,43.349 199.593,42.92 199.219,42.546 C198.911,42.238 198.515,42.04 198.086,41.853 L197.382,41.545 C197.107,41.424 196.832,41.303 196.612,41.083 C196.414,40.896 196.337,40.731 196.337,40.445 C196.337,39.763 196.843,39.312 197.569,39.312 C197.987,39.312 198.251,39.455 198.394,39.565 C198.559,39.697 198.724,39.917 198.823,40.115 L199.472,39.686 Z" id="BiPass-Tele-Copy" fill-opacity="0.492725317" fill="#011C41"></path>
                        <g id="Bee">
                            <path d="M26.5058509,0.824211367 L43.9945025,10.8759128 C45.9060314,11.9748613 47,13.8613368 47,16.0592337 L47,36.1629885 C47,38.3605336 45.9060314,40.2473609 43.9945025,41.3463094 L26.5058509,51.3980109 C24.594322,52.4969593 22.4060314,52.4969593 20.4941491,51.3980109 L3.00585094,41.3463094 C1.09432203,40.2473609 0,38.3605336 0,36.1629885 L0,16.0592337 C0,13.8613368 1.09432203,11.9748613 3.00585094,10.8759128 L20.4941491,0.824211367 C22.4060314,-0.274737122 24.594322,-0.274737122 26.5058509,0.824211367" id="Fill-1" fill="#FFA600"></path>
                            <path d="M23.5,26.1111111 C26.2192533,26.1111111 28.6810584,27.2199824 30.462963,29.0124237 L28.1560454,31.3333333 C26.964388,30.1346295 25.3185334,29.3931595 23.5,29.3931595 C21.6818155,29.3931595 20.035612,30.1346295 18.8443034,31.3333333 L16.537037,29.0124237 C18.3189416,27.2199824 20.7807467,26.1111111 23.5,26.1111111" id="Fill-2" fill="#FFFFFF"></path>
                            <path d="M26.057776,16.537037 C25.2162488,16.4002416 24.3616948,16.3303323 23.4999762,16.3303323 C22.6382575,16.3303323 21.7840293,16.4002416 20.9421764,16.537037 C20.2377556,10.7345679 26.7625225,10.7345679 26.057776,16.537037" id="Fill-3" fill="#FFFFFF"></path>
                            <path d="M23.0648148,19.1481481 C27.6537126,19.1481481 31.8078317,20.9445454 34.8148148,23.8492852 L32.4734537,26.1111111 C30.0655305,23.7853358 26.7391903,22.3466449 23.0648148,22.3466449 C19.3907934,22.3466449 16.0640992,23.7853358 13.6565299,26.1111111 L11.3148148,23.8492852 C14.322152,20.9445454 18.4762711,19.1481481 23.0648148,19.1481481" id="Fill-4" fill="#FFFFFF"></path>
                            <path d="M23.5,32.2037037 C25.422822,32.2037037 26.9814815,33.7623632 26.9814815,35.6851852 C26.9814815,37.6080072 25.422822,39.1666667 23.5,39.1666667 C21.577178,39.1666667 20.0185185,37.6080072 20.0185185,35.6851852 C20.0185185,33.7623632 21.577178,32.2037037 23.5,32.2037037" id="Fill-5" fill="#FFFFFF"></path>
                            <path d="M17.4074074,32.2037037 C16.4461251,32.2037037 15.6666667,31.4245345 15.6666667,30.4631493 C15.6666667,29.501764 16.4461251,28.7222222 17.4074074,28.7222222 C18.3686898,28.7222222 19.1481481,29.501764 19.1481481,30.4631493 C19.1481481,31.4245345 18.3686898,32.2037037 17.4074074,32.2037037" id="Fill-6" fill="#FFFFFF"></path>
                            <path d="M29.5927789,32.2037037 C28.6313937,32.2037037 27.8518519,31.4245345 27.8518519,30.4631493 C27.8518519,29.501764 28.6313937,28.7222222 29.5927789,28.7222222 C30.5541641,28.7222222 31.3333333,29.501764 31.3333333,30.4631493 C31.3333333,31.4245345 30.5541641,32.2037037 29.5927789,32.2037037" id="Fill-7" fill="#FFFFFF"></path>
                            <path d="M33.9446308,26.9814815 C32.9832455,26.9814815 32.2037037,26.2023123 32.2037037,25.2409271 C32.2037037,24.2795418 32.9832455,23.5 33.9446308,23.5 C34.906016,23.5 35.6851852,24.2795418 35.6851852,25.2409271 C35.6851852,26.2023123 34.906016,26.9814815 33.9446308,26.9814815" id="Fill-8" fill="#FFFFFF"></path>
                            <path d="M13.0557419,26.9814815 C12.0943566,26.9814815 11.3148148,26.2023123 11.3148148,25.2409271 C11.3148148,24.2795418 12.0943566,23.5 13.0557419,23.5 C14.0171271,23.5 14.7962963,24.2795418 14.7962963,25.2409271 C14.7962963,26.2023123 14.0171271,26.9814815 13.0557419,26.9814815" id="Fill-9" fill="#FFFFFF"></path>
                            <path d="M22.6296296,39.1666667 L24.3703704,39.1666667 L23.5,41.7777778 L22.6296296,39.1666667" id="Fill-10" fill="#FFFFFF"></path>
                            <path d="M19.5831449,13.0555556 C20.304413,13.0555556 20.8888889,12.4710797 20.8888889,11.7501884 C20.8888889,11.0289203 20.304413,10.4444444 19.5831449,10.4444444 C18.8622537,10.4444444 18.2777778,11.0289203 18.2777778,11.7501884 C18.2777778,12.4710797 18.8622537,13.0555556 19.5831449,13.0555556" id="Fill-11" fill="#FFFFFF"></path>
                            <path d="M27.4166667,13.0555556 C28.1374539,13.0555556 28.7222222,12.4710797 28.7222222,11.7501884 C28.7222222,11.0289203 28.1374539,10.4444444 27.4166667,10.4444444 C26.6958794,10.4444444 26.1111111,11.0289203 26.1111111,11.7501884 C26.1111111,12.4710797 26.6958794,13.0555556 27.4166667,13.0555556" id="Fill-12" fill="#FFFFFF"></path>
                            <path d="M23.5,13.5336514 L23.5205388,13.5449007 L26.6171551,10.4455331 L26.9814815,10.4444444 L24.410342,15.6666667 L23.5,15.6666667 L23.5,13.5336514" id="Fill-13" fill="#FFFFFF"></path>
                            <path d="M22.6296296,13.5336514 L22.609405,13.5449007 L19.5115596,10.4448073 L19.1481481,10.4444444 L21.719205,15.6666667 L22.6296296,15.6666667 L22.6296296,13.5336514" id="Fill-14" fill="#FFFFFF"></path>
                        </g>
                    </g>
                </g>
            </g>
        </g>
    </g>
</svg>