<?xml version="1.0" encoding="UTF-8" standalone="no"?>
<svg width="17px" height="17px" viewBox="0 0 17 17" version="1.1" xmlns="http://www.w3.org/2000/svg" xmlns:xlink="http://www.w3.org/1999/xlink" xmlns:sketch="http://www.bohemiancoding.com/sketch/ns">
    <!-- Generator: Sketch 3.5.1 (25234) - http://www.bohemiancoding.com/sketch -->
    <title>icon</title>
    <desc>Created with Sketch.</desc>
    <defs></defs>
    <g id="Page-1" stroke="none" stroke-width="1" fill="none" fill-rule="evenodd" sketch:type="MSPage">
        <g id="INDEX" sketch:type="MSArtboardGroup" transform="translate(-1122.000000, -31.000000)" fill="#FFFFFF">
            <g id="HEADER" sketch:type="MSLayerGroup" transform="translate(-2.100000, 0.000000)">
                <g id="Menu-/-not-loginned" transform="translate(2.100000, 0.000000)" sketch:type="MSShapeGroup">
                    <g id="Buttons" transform="translate(1099.000000, 20.000000)">
                        <g id="Registration-button">
                            <g id="icon" transform="translate(23.000000, 11.000000)">
                                <path d="M15,8 C14.5,8 14,8.5 14,9 L14,15 L2,15 L2,3 L8,3 C8.5,3 9,2.5 9,2 C9,1.5 8.5,1 8,1 L1,1 C0.4,1 0,1.4 0,2 L0,16 C0,16.6 0.4,17 1,17 L15,17 C15.6,17 16,16.6 16,16 L16,9 C16,8.5 15.5,8 15,8 L15,8 L15,8 Z M16.8,2.6 L14.4,0.2 C14.3,0.1 14.1,0 13.9,0 C13.7,0 13.6,0.1 13.4,0.2 L4,10 L4,13 L7,13 L16.8,3.6 C16.9,3.5 17,3.3 17,3.1 C17,2.9 16.9,2.8 16.8,2.6 L16.8,2.6 L16.8,2.6 Z M7,11 L6,11 L6,10 L13.9,2 L15,3.1 L7,11 L7,11 Z" id="SVGID_7_"></path>
                            </g>
                        </g>
                    </g>
                </g>
            </g>
        </g>
    </g>
</svg>